<svg width="25" height="30" viewBox="0 0 25 30" fill="none" xmlns="http://www.w3.org/2000/svg">
<path d="M18.003 0C18.0728 0 18.1426 0 18.2164 0C18.3877 2.11566 17.5801 3.69648 16.5987 4.84126C15.6357 5.97813 14.3171 7.08075 12.1843 6.91345C12.042 4.82809 12.8509 3.36451 13.831 2.22237C14.7399 1.15795 16.4064 0.210776 18.003 0Z" fill="#15023A"/>
<path d="M24.4579 22.021C24.4579 22.042 24.4579 22.0605 24.4579 22.0802C23.8585 23.8956 23.0036 25.4513 21.9602 26.8952C21.0078 28.2059 19.8406 29.9699 17.7566 29.9699C15.9557 29.9699 14.7596 28.8119 12.914 28.7803C10.9617 28.7487 9.88803 29.7485 8.10302 30.0002C7.89883 30.0002 7.69464 30.0002 7.4944 30.0002C6.18364 29.8105 5.12581 28.7724 4.35516 27.8371C2.08273 25.0733 0.326703 21.5032 0 16.9347C0 16.4868 0 16.0402 0 15.5923C0.138322 12.3226 1.72705 9.66423 3.83876 8.37586C4.95323 7.69084 6.48531 7.10725 8.19128 7.36809C8.92241 7.48138 9.66934 7.73168 10.3241 7.97934C10.9445 8.21778 11.7205 8.64065 12.4555 8.61825C12.9535 8.60376 13.4488 8.34425 13.9507 8.16113C15.4209 7.63024 16.8621 7.02163 18.7617 7.30749C21.0447 7.65264 22.665 8.667 23.6662 10.232C21.7349 11.4611 20.2081 13.3133 20.469 16.4762C20.7008 19.3494 22.3712 21.0303 24.4579 22.021Z" fill="#15023A"/>
</svg>
