<svg width="13" height="12" viewBox="0 0 13 12" fill="none" xmlns="http://www.w3.org/2000/svg">
<path d="M10.4415 1.10638H9.40426V0.553192C9.40426 0.406476 9.34598 0.26577 9.24224 0.162026C9.13849 0.0582825 8.99779 0 8.85107 0C8.70436 0 8.56365 0.0582825 8.4599 0.162026C8.35616 0.26577 8.29788 0.406476 8.29788 0.553192V1.10638H6.6383V0.553192C6.6383 0.406476 6.58002 0.26577 6.47628 0.162026C6.37253 0.0582825 6.23183 0 6.08511 0C5.9384 0 5.79769 0.0582825 5.69395 0.162026C5.5902 0.26577 5.53192 0.406476 5.53192 0.553192V1.10638H3.87234V0.553192C3.87234 0.406476 3.81406 0.26577 3.71032 0.162026C3.60657 0.0582825 3.46587 0 3.31915 0C3.17244 0 3.03173 0.0582825 2.92799 0.162026C2.82424 0.26577 2.76596 0.406476 2.76596 0.553192V1.10638H1.72872C1.27042 1.10697 0.83105 1.28929 0.506978 1.61336C0.182906 1.93743 0.000585509 2.3768 0 2.83511V4.42554H12.1702V2.83511C12.1696 2.3768 11.9873 1.93743 11.6632 1.61336C11.3392 1.28929 10.8998 1.10697 10.4415 1.10638Z" fill="#15023A"/>
<path d="M0 10.2714C0.000585509 10.7297 0.182906 11.1691 0.506978 11.4931C0.83105 11.8172 1.27042 11.9995 1.72872 12.0001H10.4415C10.8998 11.9995 11.3392 11.8172 11.6632 11.4931C11.9873 11.1691 12.1696 10.7297 12.1702 10.2714V5.36182H0V10.2714ZM4.03443 8.04867C4.13817 7.94496 4.27885 7.8867 4.42554 7.8867C4.57222 7.8867 4.7129 7.94496 4.81664 8.04867L5.53192 8.76339L7.35358 6.94229C7.45791 6.84152 7.59765 6.78576 7.7427 6.78702C7.88774 6.78828 8.02649 6.84646 8.12906 6.94902C8.23162 7.05159 8.2898 7.19034 8.29106 7.33538C8.29232 7.48043 8.23656 7.62017 8.13579 7.7245L5.92303 9.93727C5.81929 10.041 5.67861 10.0992 5.53192 10.0992C5.38523 10.0992 5.24455 10.041 5.14081 9.93727L4.03443 8.83088C3.93072 8.72714 3.87246 8.58646 3.87246 8.43978C3.87246 8.29309 3.93072 8.15241 4.03443 8.04867Z" fill="#15023A"/>
</svg>
