<svg width="26" height="26" viewBox="0 0 26 26" fill="none" xmlns="http://www.w3.org/2000/svg">
<path d="M26 7.42857V4.64286C26 3.90404 25.7065 3.19548 25.1841 2.67306C24.6617 2.15064 23.9531 1.85714 23.2143 1.85714H19.5V0.928571C19.5 0.682299 19.4022 0.446113 19.228 0.271972C19.0539 0.0978313 18.8177 0 18.5714 0C18.3252 0 18.089 0.0978313 17.9148 0.271972C17.7407 0.446113 17.6429 0.682299 17.6429 0.928571V1.85714H8.35714V0.928571C8.35714 0.682299 8.25931 0.446113 8.08517 0.271972C7.91103 0.0978313 7.67484 0 7.42857 0C7.1823 0 6.94611 0.0978313 6.77197 0.271972C6.59783 0.446113 6.5 0.682299 6.5 0.928571V1.85714H2.78571C2.0469 1.85714 1.33834 2.15064 0.815917 2.67306C0.293494 3.19548 0 3.90404 0 4.64286V7.42857H26Z" fill="#15023A"/>
<path d="M0 9.28564V23.2142C0 23.953 0.293494 24.6616 0.815917 25.184C1.33834 25.7064 2.0469 25.9999 2.78571 25.9999H23.2143C23.9531 25.9999 24.6617 25.7064 25.1841 25.184C25.7065 24.6616 26 23.953 26 23.2142V9.28564H0ZM18.2464 14.6333L11.7464 20.2047C11.5688 20.3566 11.3403 20.4359 11.1068 20.4268C10.8732 20.4177 10.6516 20.3208 10.4864 20.1555L7.70064 17.3698C7.5315 17.1947 7.4379 16.9601 7.44002 16.7166C7.44213 16.4732 7.53979 16.2403 7.71195 16.0681C7.88412 15.8959 8.11702 15.7983 8.36049 15.7962C8.60395 15.794 8.83851 15.8876 9.01364 16.0568L11.1921 18.2352L17.0421 13.2209C17.1341 13.1379 17.2419 13.0742 17.359 13.0335C17.4761 12.9929 17.6001 12.976 17.7238 12.984C17.8475 12.9921 17.9683 13.0247 18.0792 13.0802C18.19 13.1356 18.2887 13.2127 18.3692 13.3069C18.4498 13.4011 18.5108 13.5104 18.5484 13.6285C18.5861 13.7466 18.5997 13.871 18.5885 13.9945C18.5774 14.1179 18.5416 14.2379 18.4833 14.3473C18.425 14.4567 18.3454 14.5533 18.2492 14.6314L18.2464 14.6333Z" fill="#15023A"/>
</svg>
