<svg width="53" height="50" viewBox="0 0 53 50" fill="none" xmlns="http://www.w3.org/2000/svg">
<path d="M11.6597 5.15171C8.2898 5.52832 5.59238 8.18806 5.20248 11.5217C4.15511 20.4768 4.15511 29.5232 5.20248 38.4784C5.59238 41.812 8.2898 44.4716 11.6597 44.8482C20.4254 45.8279 29.4937 45.8279 38.2593 44.8482C41.6294 44.4716 44.3267 41.812 44.7165 38.4784C45.4692 32.0438 45.6809 25.5621 45.352 19.1012C45.3434 18.9343 45.4059 18.7716 45.5239 18.6534L48.5828 15.5946C48.9368 15.2406 49.5419 15.462 49.5793 15.9612C50.1567 23.6316 49.998 31.3439 49.1037 38.9914C48.4709 44.4006 44.1279 48.6368 38.7498 49.2381C29.6583 50.254 20.2608 50.254 11.1691 49.2381C5.79111 48.6368 1.44808 44.4006 0.815432 38.9914C-0.271811 29.6955 -0.271811 20.3045 0.815432 11.0086C1.44808 5.59944 5.79111 1.36315 11.1691 0.762098C20.2608 -0.254033 29.6583 -0.254033 38.7498 0.762098C40.6441 0.973787 42.4097 1.63642 43.9303 2.64242C44.2295 2.84035 44.2592 3.26096 44.0054 3.51464L41.6415 5.87882C41.448 6.0722 41.1479 6.10473 40.9071 5.97555C40.1017 5.5442 39.2071 5.25763 38.2593 5.15171C29.4937 4.172 20.4254 4.172 11.6597 5.15171Z" fill="#15023A"/>
<path d="M51.5519 7.42147C52.4143 6.55899 52.4143 5.16068 51.5519 4.29823C50.6894 3.43575 49.291 3.43575 48.4285 4.29823L23.4887 29.2381L16.2164 21.966C15.3539 21.1035 13.9556 21.1035 13.0931 21.966C12.2307 22.8285 12.2307 24.2266 13.0931 25.0891L21.9269 33.923C22.7894 34.7854 24.1878 34.7854 25.0502 33.923L51.5519 7.42147Z" fill="#15023A"/>
</svg>
