<svg width="26" height="26" viewBox="0 0 26 26" fill="none" xmlns="http://www.w3.org/2000/svg">
<path d="M25.5625 17.438C25.2711 17.1464 24.9167 17.0005 24.5002 17.0005H17.25L15.125 19.1254C14.5208 19.7086 13.8125 20.0004 13 20.0004C12.1877 20.0004 11.4792 19.709 10.875 19.1254L8.76567 17.0005H1.49998C1.0834 17.0005 0.72925 17.1466 0.437495 17.438C0.145795 17.7296 0 18.0838 0 18.5006V23.5005C0 23.9172 0.145795 24.2713 0.437495 24.563C0.729195 24.8546 1.08334 25.0002 1.49998 25.0002H24.5003C24.9168 25.0002 25.2712 24.8546 25.5626 24.563C25.8544 24.2713 26.0001 23.9172 26.0001 23.5005V18.5006C26.0001 18.0838 25.8544 17.7296 25.5625 17.438ZM19.7034 22.7036C19.5053 22.9015 19.2708 23.0004 19 23.0004C18.7291 23.0004 18.495 22.9015 18.2969 22.7036C18.0991 22.5056 18.0002 22.2713 18.0002 22.0007C18.0002 21.7299 18.0991 21.4952 18.2969 21.2976C18.495 21.0994 18.7291 21.0003 19 21.0003C19.2708 21.0003 19.5052 21.0994 19.7034 21.2976C19.9012 21.4951 20.0001 21.7298 20.0001 22.0007C20.0001 22.2713 19.9012 22.5056 19.7034 22.7036ZM23.7032 22.7036C23.5054 22.9015 23.2709 23.0004 23 23.0004C22.7292 23.0004 22.4949 22.9015 22.2969 22.7036C22.0992 22.5056 22.0003 22.2713 22.0003 22.0007C22.0003 21.7299 22.0992 21.4952 22.2969 21.2976C22.4949 21.0994 22.7292 21.0003 23 21.0003C23.2709 21.0003 23.5053 21.0994 23.7032 21.2976C23.9011 21.4951 24.0002 21.7298 24.0002 22.0007C24.0002 22.2713 23.9013 22.5056 23.7032 22.7036Z" fill="#15023A"/>
<path d="M12.2974 17.7035C12.485 17.9012 12.7194 18.0002 13.0005 18.0002C13.2818 18.0002 13.5159 17.9012 13.7036 17.7035L20.7037 10.7033C21.0265 10.4013 21.0996 10.0366 20.9224 9.60953C20.7456 9.20339 20.4382 9.0003 20.0006 9.00008H16.0005V2.00004C16.0005 1.72925 15.9013 1.49485 15.7038 1.29695C15.5057 1.099 15.2714 1 15.0007 1H11.0003C10.7296 1 10.4952 1.099 10.2972 1.29695C10.0994 1.49485 10.0004 1.7292 10.0004 2.00004V9.00014H6.00035C5.56263 9.00014 5.2555 9.20345 5.0784 9.60959C4.90141 10.0365 4.97425 10.4013 5.29726 10.7034L12.2974 17.7035Z" fill="#15023A"/>
</svg>
