<svg width="25" height="25" viewBox="0 0 25 25" fill="none" xmlns="http://www.w3.org/2000/svg">
<path d="M16.8945 5.85942H21.5923L16.1621 0.429199V5.127C16.1621 5.5311 16.4904 5.85942 16.8945 5.85942Z" fill="#15023A"/>
<path d="M5.17578 25H19.8242C21.0358 25 22.0215 24.0144 22.0215 22.8027V7.32422H16.8945C15.6829 7.32422 14.6973 6.33857 14.6973 5.12695V0H5.17578C3.96416 0 2.97852 0.985645 2.97852 2.19727V22.8027C2.97852 24.0144 3.96416 25 5.17578 25ZM9.57031 11.7676H16.8945C17.2994 11.7676 17.627 12.0952 17.627 12.5C17.627 12.9048 17.2994 13.2324 16.8945 13.2324H9.57031C9.16548 13.2324 8.83789 12.9048 8.83789 12.5C8.83789 12.0952 9.16548 11.7676 9.57031 11.7676ZM9.57031 14.6973H16.8945C17.2994 14.6973 17.627 15.0249 17.627 15.4297C17.627 15.8345 17.2994 16.1621 16.8945 16.1621H9.57031C9.16548 16.1621 8.83789 15.8345 8.83789 15.4297C8.83789 15.0249 9.16548 14.6973 9.57031 14.6973ZM9.57031 17.627H16.8945C17.2994 17.627 17.627 17.9545 17.627 18.3594C17.627 18.7642 17.2994 19.0918 16.8945 19.0918H9.57031C9.16548 19.0918 8.83789 18.7642 8.83789 18.3594C8.83789 17.9545 9.16548 17.627 9.57031 17.627ZM6.64062 11.7676C7.04512 11.7676 7.37305 12.0955 7.37305 12.5C7.37305 12.9045 7.04512 13.2324 6.64062 13.2324C6.23613 13.2324 5.9082 12.9045 5.9082 12.5C5.9082 12.0955 6.23613 11.7676 6.64062 11.7676ZM6.64062 14.6973C7.04512 14.6973 7.37305 15.0252 7.37305 15.4297C7.37305 15.8342 7.04512 16.1621 6.64062 16.1621C6.23613 16.1621 5.9082 15.8342 5.9082 15.4297C5.9082 15.0252 6.23613 14.6973 6.64062 14.6973ZM6.64062 17.627C7.04512 17.627 7.37305 17.9549 7.37305 18.3594C7.37305 18.7639 7.04512 19.0918 6.64062 19.0918C6.23613 19.0918 5.9082 18.7639 5.9082 18.3594C5.9082 17.9549 6.23613 17.627 6.64062 17.627Z" fill="#15023A"/>
</svg>
