<svg width="146" height="139" viewBox="0 0 146 139" fill="none" xmlns="http://www.w3.org/2000/svg">
<path fill-rule="evenodd" clip-rule="evenodd" d="M123.563 25.4395C123.563 29.496 122.816 33.1481 121.34 36.3421H134.466C140.487 36.3421 145.368 41.2234 145.368 47.2447V65.4158H0V47.2447C0 41.2234 4.88127 36.3421 10.9026 36.3421H24.0278C22.5525 33.1481 21.8053 29.496 21.8053 25.4395C21.8053 10.6891 34.7671 0 49.2016 0C57.6738 0 66.6351 3.96623 72.6842 11.1133C78.733 3.96623 87.6949 0 96.167 0C110.601 0 123.563 10.6891 123.563 25.4395ZM36.3421 25.4395C36.3421 20.0805 41.3612 14.5368 49.2016 14.5368C56.8319 14.5368 65.4158 20.8572 65.4158 31.4965V36.3421H59.2656C53.4142 36.3421 47.2285 36.2614 42.5092 34.5201C40.3102 33.7088 38.8858 32.6857 37.9918 31.5204C37.1533 30.4274 36.3421 28.644 36.3421 25.4395ZM86.1032 36.3421H79.9526V31.4965C79.9526 20.8572 88.5366 14.5368 96.167 14.5368C104.007 14.5368 109.026 20.0805 109.026 25.4395C109.026 28.644 108.215 30.4274 107.376 31.5204C106.482 32.6857 105.058 33.7088 102.859 34.5201C98.1397 36.2614 91.9542 36.3421 86.1032 36.3421Z" fill="#15023A"/>
<path d="M65.4169 138.1V79.9526H7.26953V127.197C7.26953 133.23 12.1394 138.1 18.1722 138.1H65.4169Z" fill="#15023A"/>
<path d="M79.9512 138.1V79.9526H138.099V127.197C138.099 133.23 133.229 138.1 127.196 138.1H79.9512Z" fill="#15023A"/>
</svg>
