<svg width="29" height="20" viewBox="0 0 29 20" fill="none" xmlns="http://www.w3.org/2000/svg">
<path d="M11.6721 4.17188C11.2638 4.17188 10.8175 4.31854 10.5094 4.66612C10.106 5.12127 9.97949 6.48145 9.99445 7.16787C10.6757 7.18436 11.9781 7.1663 12.5057 6.64163C13.0574 6.09297 13.2084 5.13424 12.6217 4.55078C12.3664 4.29684 12.0255 4.17188 11.6721 4.17188Z" fill="#15023A"/>
<path d="M6.4724 4.17188C6.8807 4.17188 7.327 4.31854 7.63506 4.66612C8.03852 5.12127 8.165 6.48145 8.15003 7.16787C7.46882 7.18436 6.16634 7.1663 5.63876 6.64163C5.08706 6.09297 4.93609 5.13424 5.52276 4.55078C5.77809 4.29684 6.119 4.17188 6.4724 4.17188Z" fill="#15023A"/>
<path d="M13.9074 3.26267C14.9433 4.29273 15.0813 5.91624 14.3716 7.16782H28.3637V2.59739C28.3637 1.16291 27.1987 0 25.7616 0H9.98181V2.80442C11.2571 2.08485 12.8685 2.22964 13.9074 3.26267C14.4976 3.84951 12.8685 2.22964 13.9074 3.26267Z" fill="#15023A"/>
<path d="M6.16479 12.2798L4.87382 10.9972L6.87946 8.98584H0V17.4024C0 18.8369 1.16503 19.9998 2.60212 19.9998H8.16024V10.2787L6.16479 12.2798Z" fill="#15023A"/>
<path d="M11.2546 8.98584L13.2335 10.9806L11.9392 12.2598L9.98181 10.2868V19.9998H25.7616C27.1987 19.9998 28.3637 18.8369 28.3637 17.4024V8.98584H11.2546Z" fill="#15023A"/>
<path d="M3.77049 7.16782C3.06061 5.91606 3.19885 4.29267 4.23467 3.26267C5.27352 2.22964 6.88491 2.08491 8.16024 2.80442V0H2.60212C1.16503 0 0 1.16291 0 2.59739V7.16782H3.77049Z" fill="#15023A"/>
</svg>
