<svg width="12" height="12" viewBox="0 0 12 12" fill="none" xmlns="http://www.w3.org/2000/svg">
<path d="M6.33198 11.9876C12.8904 11.6112 14.1097 2.37474 7.88666 0.300614C6.16465 -0.275696 4.19022 -0.0135639 2.68372 1.00268H2.68414C1.98595 1.4669 1.39282 2.07232 0.943025 2.77988C0.493226 3.48745 0.196744 4.28145 0.0727065 5.11065L0.0723297 5.1104C-0.517898 8.81185 2.58794 12.2324 6.33198 11.9876ZM11.186 8.18609C10.9719 8.69296 10.6841 9.16545 10.332 9.58829C10.3072 9.44009 10.3758 9.26844 10.2736 9.13013C10.1627 8.91397 10.06 8.69345 9.94449 8.47985C9.90153 8.40042 9.91338 8.35478 9.97668 8.2976C10.6547 7.70266 10.0503 8.01898 10.1169 7.16867C10.1193 7.14569 10.1147 7.12252 10.1038 7.10215C10.0929 7.08179 10.0761 7.06517 10.0556 7.05445C9.73423 6.84924 9.31465 6.77875 8.9825 7.00681C8.56854 7.20246 7.97808 7.0528 7.84418 6.57766C7.72575 6.26184 7.74028 5.9429 7.73717 5.62037C7.75627 5.44643 7.99487 5.41723 7.95618 5.21618C7.96536 4.9609 7.88216 4.69142 8.12357 4.52481C8.14206 4.50848 8.16411 4.49669 8.18795 4.49038C8.2118 4.48406 8.23679 4.48339 8.26094 4.48842C8.48152 4.5151 8.70444 4.46311 8.89047 4.34161C9.08775 4.21654 9.33132 4.2975 9.54986 4.26903C9.65402 4.26161 9.7312 4.29221 9.79532 4.37329C9.92141 4.53248 10.1186 4.57923 10.2843 4.67593C10.3401 4.70845 10.37 4.66745 10.3961 4.63372C10.5354 4.45413 10.7487 4.3938 10.9357 4.29053C11.0376 4.23215 11.2419 4.45503 11.4158 4.46294C11.7623 5.6759 11.6819 7.02617 11.186 8.18609ZM11.1045 3.62735C10.8969 3.65467 11.0365 3.45739 10.9293 3.35417C10.8217 3.25813 10.7193 3.15636 10.6227 3.0493C10.5726 2.99584 10.5402 2.98724 10.4824 3.04435C10.327 3.19813 10.3357 3.18181 10.5169 3.36557C10.7286 3.59819 10.8881 3.59431 10.5052 3.75595C10.418 3.79519 10.3357 3.88458 10.2406 3.75541C10.1831 3.67725 10.1047 3.62473 10.114 3.50432C10.1283 3.31866 9.98669 3.18405 9.92115 3.02374C9.90158 2.97591 9.86698 3.00961 9.84855 3.03316C9.71066 3.21045 9.50236 3.27898 9.31368 3.37746C8.98778 3.66241 9.06217 3.63138 8.6297 3.61899C8.58967 3.62071 8.57789 3.57243 8.56051 3.54422C8.34275 3.18772 8.38497 3.10082 8.61058 2.76427C8.69357 2.71449 9.06024 2.77195 9.12955 2.84434C9.1607 2.87684 9.18628 2.91471 9.23123 2.97137C9.26578 2.83337 9.24829 2.72763 9.25186 2.62347C9.31032 2.19606 9.66945 2.38868 9.9244 2.29584C10.0449 2.20374 10.0944 2.15789 10.0688 2.1127C10.495 2.55717 10.845 3.06893 11.1045 3.62735ZM10.0339 2.07693C9.85992 1.96363 9.47333 1.84418 9.46303 1.56422C9.66488 1.72181 9.85563 1.89312 10.0339 2.07693ZM2.03063 2.02276C2.35502 1.6979 2.71796 1.41398 3.11136 1.17732C3.24514 1.24562 3.34059 1.49687 3.50841 1.40759C3.68738 1.31368 3.87814 1.23919 4.00662 1.07126C4.07942 0.982827 4.2068 1.05051 4.30187 1.02369C4.67565 0.973077 4.7767 1.39867 4.91652 1.65185C4.90418 1.66224 4.89768 1.6722 4.89231 1.67159C4.56798 1.63499 4.27059 1.73913 3.97667 1.85231C3.88012 1.88949 3.8057 1.89265 3.74529 1.79967C3.67064 1.6847 3.57472 1.68138 3.45563 1.73098C3.34532 1.80895 2.949 1.82242 2.97639 1.97891C3.00329 2.12593 2.88721 2.37653 3.15111 2.32644C3.27477 2.28341 3.38107 2.64883 3.45664 2.43874C3.61881 1.78171 4.30246 2.35507 4.8296 1.93525C5.02353 1.82019 5.18303 2.1992 5.25839 2.3327C5.31566 2.45796 5.35709 2.60543 5.55846 2.56174C5.43219 2.68807 5.30504 2.81354 5.18018 2.94123C5.14396 2.97827 5.11104 2.9664 5.07037 2.95227C4.91338 2.89778 4.75426 2.84933 4.59782 2.79331C4.52319 2.76658 4.48739 2.76397 4.48909 2.86396C4.61682 3.55161 4.03102 2.8884 3.6242 3.4041C3.11656 3.91428 3.50942 4.34241 2.81173 4.87876C2.77003 4.91705 2.73538 4.92167 2.69415 4.89138C2.39106 4.67623 1.7101 4.55933 1.48369 4.91102C1.48044 4.92162 1.47965 4.93281 1.48137 4.94376C1.48309 4.95471 1.48729 4.96512 1.49363 4.97421C1.61489 5.16856 1.6244 5.49555 1.85462 5.16953C1.92315 5.11113 2.00365 5.13079 2.07382 5.14245C2.14765 5.15472 2.11099 5.2329 2.10915 5.27838C2.11958 5.45971 2.38042 5.49202 2.3291 5.69615C2.29983 5.84383 2.48585 5.76221 2.56759 5.78698C2.69973 5.80603 2.79998 5.76183 2.88469 5.65863C2.94893 5.58038 3.3177 5.5272 3.40262 5.57755C3.46995 5.6454 3.49823 5.7514 3.54653 5.83424C3.62681 5.99533 3.63028 5.99857 3.74845 5.87126C4.01998 5.65812 4.40165 5.82676 4.66001 5.97477C4.86299 6.08846 4.79594 6.49437 5.0983 6.43604C5.15637 6.42233 5.18779 6.47181 5.21963 6.50767C5.43925 6.77635 5.79386 6.74421 5.92376 7.11264C6.00746 7.26631 5.99851 7.40099 5.92739 7.55302C5.87685 7.83859 5.73643 8.04901 5.43991 8.12898C5.20479 8.21343 5.60146 8.59706 5.06328 8.75004C4.92525 8.78009 4.90738 8.8858 4.92525 9.00977C4.98234 9.32905 4.90481 9.57001 4.55364 9.65413C4.44978 9.68845 4.46829 9.82654 4.419 9.90525C4.17672 10.3468 4.39696 10.6689 4.70551 10.9782C4.43469 10.9942 4.14119 11.0217 4.04758 10.7301C3.93063 10.3905 3.8248 10.0479 3.65138 9.73034C3.59314 9.62371 3.63063 9.49981 3.62912 9.38416C3.58685 8.91097 3.10366 8.55681 3.19442 8.05263C3.2296 7.80011 2.86943 8.16073 2.49652 7.70115C2.37222 7.55371 2.08301 7.19735 2.13296 7.01265C2.23505 6.75817 2.24581 6.4512 2.48149 6.27458C2.58189 6.19653 2.59102 5.95317 2.40378 6.00036C1.9228 6.08083 2.02557 5.71942 1.74387 5.78804C1.55312 5.80834 1.41542 5.74582 1.26717 5.61236C0.822413 5.2033 0.694915 5.50638 0.440083 5.20311C0.611097 3.99848 1.16938 2.88219 2.03063 2.02276Z" fill="#15023A"/>
</svg>
