<svg width="30" height="30" viewBox="0 0 30 30" fill="none" xmlns="http://www.w3.org/2000/svg">
<path d="M28.8672 12.3922L16.6307 12.3916C16.0903 12.3916 15.6523 12.8295 15.6523 13.3699V17.2789C15.6523 17.8191 16.0903 18.2571 16.6306 18.2571H23.5215C22.7669 20.2154 21.3586 21.8553 19.5618 22.8973L22.5 27.9837C27.2133 25.2578 29.9999 20.4749 29.9999 15.1208C29.9999 14.3585 29.9437 13.8135 29.8313 13.1999C29.7459 12.7337 29.3411 12.3922 28.8672 12.3922Z" fill="#167EE6"/>
<path d="M15.0011 24.1295C11.6288 24.1295 8.6849 22.287 7.10378 19.5605L2.01758 22.4922C4.60591 26.9782 9.45469 29.999 15.0011 29.999C17.722 29.999 20.2893 29.2664 22.5009 27.9898V27.9828L19.5627 22.8963C18.2187 23.6759 16.6634 24.1295 15.0011 24.1295Z" fill="#12B347"/>
<path d="M22.4999 27.9899V27.9829L19.5616 22.8965C18.2176 23.6759 16.6625 24.1297 15 24.1297V29.9992C17.7209 29.9992 20.2883 29.2666 22.4999 27.9899Z" fill="#0F993E"/>
<path d="M5.86947 14.9997C5.86947 13.3375 6.32309 11.7824 7.10243 10.4385L2.01623 7.50684C0.732526 9.7115 0 12.2719 0 14.9997C0 17.7276 0.732526 20.288 2.01623 22.4926L7.10243 19.561C6.32309 18.2171 5.86947 16.6619 5.86947 14.9997Z" fill="#FFD500"/>
<path d="M15.0011 5.86947C17.2001 5.86947 19.22 6.65086 20.7978 7.95062C21.187 8.27124 21.7527 8.2481 22.1093 7.89156L24.8789 5.12188C25.2835 4.71736 25.2546 4.0552 24.8225 3.68033C22.1791 1.38707 18.7397 0 15.0011 0C9.45469 0 4.60591 3.02087 2.01758 7.50684L7.10378 10.4385C8.6849 7.71197 11.6288 5.86947 15.0011 5.86947Z" fill="#FF4B26"/>
<path d="M20.7967 7.95062C21.1859 8.27124 21.7517 8.2481 22.1082 7.89156L24.8779 5.12188C25.2823 4.71736 25.2535 4.0552 24.8214 3.68033C22.178 1.38701 18.7386 0 15 0V5.86947C17.199 5.86947 19.219 6.65086 20.7967 7.95062Z" fill="#D93F21"/>
</svg>
