<svg width="32" height="32" viewBox="0 0 32 32" fill="none" xmlns="http://www.w3.org/2000/svg">
<g clip-path="url(#clip0_1706_1666)">
<path d="M13.6268 17.2432C13.6268 16.2426 12.8159 15.4316 11.8153 15.4316H9.93263C8.93209 15.4316 8.12109 16.2426 8.12109 17.2432V29.8621C8.12109 30.8626 8.93209 31.6736 9.93263 31.6736H11.8153C12.8159 31.6736 13.6268 30.8626 13.6268 29.8621V17.2432Z" fill="#15023A"/>
<path d="M5.50576 21.6479C5.50576 20.5714 4.63309 19.6987 3.55658 19.6987H1.94918C0.872662 19.6987 0 20.5714 0 21.6479V29.7246C0 30.8011 0.872662 31.6737 1.94918 31.6737H3.55658C4.63309 31.6737 5.50576 30.8011 5.50576 29.7246V21.6479Z" fill="#15023A"/>
<path d="M21.6102 12.4258C21.6102 11.4253 20.7993 10.6143 19.7987 10.6143H17.916C16.9155 10.6143 16.1045 11.4253 16.1045 12.4258V29.8622C16.1045 30.8628 16.9155 31.6738 17.916 31.6738H19.7987C20.7993 31.6738 21.6102 30.8628 21.6102 29.8622V12.4258Z" fill="#15023A"/>
<path d="M31.7069 5.47213L28.1752 0.941715C27.8703 0.550531 27.4367 0.326172 26.9857 0.326172C26.5346 0.326172 26.101 0.550531 25.7962 0.941715L22.2645 5.47199C21.9615 5.86056 21.8872 6.28712 22.0606 6.6421C22.2496 7.02915 22.7033 7.26012 23.2737 7.26012L24.2255 7.26273V29.9137C24.2255 30.9126 25.0393 31.6736 26.0381 31.6736H27.9335C28.9324 31.6736 29.7313 30.9126 29.7313 29.9137V7.24704L30.689 7.26026C31.2606 7.26026 31.7183 7.02915 31.9073 6.64224C32.0807 6.28712 32.0098 5.86069 31.7069 5.47213Z" fill="#15023A"/>
</g>
<defs>
<clipPath id="clip0_1706_1666">
<rect width="32" height="32" fill="white"/>
</clipPath>
</defs>
</svg>
