<svg width="22" height="26" viewBox="0 0 22 26" fill="none" xmlns="http://www.w3.org/2000/svg">
<path d="M17.706 19.8428C17.4072 20.0603 17.1174 20.3515 16.8106 20.6599C16.2315 21.2421 15.575 21.9019 14.6826 22.1918C14.4359 22.2718 14.1884 22.3169 13.9412 22.3384L15.3764 25.4815C15.5234 25.8036 15.8227 25.9974 16.1768 25.9998H16.1837C16.5349 25.9998 16.8339 25.8106 16.9846 25.4927L17.434 24.544C17.5927 24.209 17.9697 24.0368 18.3268 24.1363L19.338 24.4179C19.6792 24.5128 20.0202 24.4089 20.2503 24.1397C20.4803 23.8705 20.5298 23.5174 20.3827 23.1953L18.611 19.3154C18.2794 19.4855 17.9684 19.6519 17.706 19.8428Z" fill="#15023A"/>
<path d="M7.03006 22.1918C6.13762 21.902 5.48112 21.2421 4.90195 20.6599C4.59513 20.3515 4.30537 20.0602 4.00652 19.8428C3.74413 19.6519 3.43314 19.4854 3.10164 19.3154L1.32996 23.1953C1.1829 23.5174 1.23241 23.8705 1.4624 24.1397C1.69239 24.409 2.03334 24.5129 2.37459 24.418L3.38591 24.1363C3.74306 24.037 4.11996 24.209 4.27865 24.544L4.72812 25.4927C4.87874 25.8107 5.17774 25.9998 5.5289 25.9998H5.53581C5.88996 25.9973 6.18917 25.8036 6.33628 25.4815L7.77142 22.3387C7.52406 22.3171 7.27671 22.2718 7.03006 22.1918Z" fill="#15023A"/>
<path d="M20.4926 13.5464C20.6415 13.0879 20.8631 12.6562 21.0774 12.2387C21.404 11.6025 21.7125 11.0015 21.7125 10.4152C21.7125 9.82891 21.4041 9.22796 21.0774 8.59166C20.863 8.17414 20.6414 7.74244 20.4925 7.28393C20.3373 6.80613 20.2586 6.3138 20.1824 5.83767C20.0707 5.13987 19.9653 4.48073 19.6401 4.03405C19.3105 3.58103 18.7142 3.2773 18.0829 2.95575C17.6548 2.73775 17.2122 2.51227 16.8097 2.21926C16.4128 1.93042 16.066 1.58185 15.7307 1.24481C15.2287 0.740195 14.7545 0.263608 14.2121 0.0874462C13.7008 -0.0785594 13.0473 0.0237151 12.3556 0.131931C11.8716 0.207697 11.371 0.286003 10.8563 0.286003C10.3417 0.286003 9.84115 0.207697 9.35715 0.131931C8.92819 0.0647975 8.51402 0 8.1393 0C7.90961 0 7.69481 0.0243245 7.50041 0.0874462C6.95796 0.263608 6.48381 0.740195 5.98184 1.24481C5.64652 1.58185 5.29979 1.93037 4.90288 2.21921C4.50028 2.51222 4.05766 2.73764 3.62968 2.95565C2.99841 3.27725 2.40213 3.58093 2.0724 4.034C1.7473 4.48068 1.64182 5.13982 1.5301 5.83767C1.45393 6.3138 1.37512 6.80613 1.21998 7.28393C1.07109 7.74249 0.849477 8.17419 0.635127 8.59166C0.308499 9.22791 0 9.82886 0 10.4152C0 11.0015 0.30855 11.6025 0.635178 12.2388C0.849528 12.6562 1.07114 13.0879 1.22003 13.5464C1.37517 14.0242 1.45393 14.5165 1.53016 14.9927C1.64182 15.6905 1.74735 16.3496 2.07245 16.7964C2.40213 17.2494 2.99836 17.5531 3.62968 17.8747C4.05772 18.0927 4.50033 18.3181 4.90293 18.6112C5.29984 18.9 5.64657 19.2485 5.98194 19.5856C6.48392 20.0902 6.95806 20.5668 7.50052 20.7429C8.01189 20.9089 8.66535 20.8067 9.3571 20.6984C9.8411 20.6227 10.3416 20.5444 10.8563 20.5444C11.371 20.5444 11.8715 20.6227 12.3555 20.6984C13.0472 20.8067 13.7007 20.909 14.2121 20.7429C14.7546 20.5668 15.2287 20.0902 15.7307 19.5856C16.066 19.2486 16.4127 18.9001 16.8096 18.6112C17.2122 18.3181 17.6548 18.0927 18.0828 17.8747C18.7141 17.5531 19.3104 17.2494 19.6401 16.7964C19.9651 16.3497 20.0707 15.6905 20.1824 14.9927C20.2586 14.5166 20.3374 14.0242 20.4926 13.5464ZM15.7383 15.0198C15.7383 15.4405 15.3972 15.7815 14.9766 15.7815H6.73595C6.31527 15.7815 5.97422 15.4405 5.97422 15.0198V13.1976C5.97422 12.0896 6.63839 11.1065 7.66627 10.693L8.04952 10.5388C7.58872 9.94109 7.31374 9.19327 7.31374 8.38204L7.31415 7.24351C7.31415 5.30248 8.89432 3.71423 10.8366 3.70326H10.8716C12.818 3.71377 14.3981 5.30192 14.3984 7.24351V7.24376L14.3988 8.38178C14.3988 9.19312 14.1238 9.94104 13.6629 10.5388L14.0462 10.693C15.0741 11.1065 15.7383 12.0896 15.7383 13.1976V15.0198Z" fill="#15023A"/>
<path d="M14.2148 13.1976C14.2148 12.7149 13.9254 12.2866 13.4775 12.1064L12.2785 11.624C11.8429 11.8157 11.3619 11.923 10.8562 11.923C10.3504 11.923 9.86947 11.8157 9.43382 11.624L8.23481 12.1064C7.78696 12.2866 7.49756 12.7149 7.49756 13.1976V14.2582H14.2147V13.1976H14.2148Z" fill="#15023A"/>
<path d="M10.8562 10.3993C11.9696 10.3993 12.8753 9.49433 12.8753 8.38191L12.8749 7.2439C12.8749 7.2438 12.8749 7.24375 12.8749 7.24365C12.8749 6.13738 11.9744 5.23255 10.8675 5.22656H10.8409C9.73817 5.23281 8.83756 6.13763 8.83756 7.24365L8.83716 8.38217C8.83716 9.49428 9.74289 10.3993 10.8562 10.3993Z" fill="#15023A"/>
</svg>
