<svg width="26" height="26" viewBox="0 0 26 26" fill="none" xmlns="http://www.w3.org/2000/svg">
<g clip-path="url(#clip0_1712_2989)">
<path d="M3.80859 13.0508H7.36328V14.5742H3.80859V13.0508Z" fill="#15023A"/>
<path d="M19.5508 9.24219H2.28516C1.02512 9.24219 0 10.2673 0 11.5273V23.7148C0 24.9749 1.02512 26 2.28516 26H19.5508C20.8108 26 21.8359 24.9749 21.8359 23.7148V11.5273C21.8359 10.2673 20.8108 9.24219 19.5508 9.24219ZM2.28516 12.2891C2.28516 11.8684 2.6262 11.5273 3.04688 11.5273H8.125C8.54567 11.5273 8.88672 11.8684 8.88672 12.2891V15.3359C8.88672 15.7566 8.54567 16.0977 8.125 16.0977H3.04688C2.6262 16.0977 2.28516 15.7566 2.28516 15.3359V12.2891ZM3.04688 19.1445H4.57031C4.99098 19.1445 5.33203 19.4856 5.33203 19.9062C5.33203 20.3269 4.99098 20.668 4.57031 20.668H3.04688C2.6262 20.668 2.28516 20.3269 2.28516 19.9062C2.28516 19.4856 2.6262 19.1445 3.04688 19.1445ZM8.125 23.7148H3.04688C2.6262 23.7148 2.28516 23.3738 2.28516 22.9531C2.28516 22.5325 2.6262 22.1914 3.04688 22.1914H8.125C8.54567 22.1914 8.88672 22.5325 8.88672 22.9531C8.88672 23.3738 8.54567 23.7148 8.125 23.7148ZM9.14062 20.668H7.61719C7.19652 20.668 6.85547 20.3269 6.85547 19.9062C6.85547 19.4856 7.19652 19.1445 7.61719 19.1445H9.14062C9.5613 19.1445 9.90234 19.4856 9.90234 19.9062C9.90234 20.3269 9.5613 20.668 9.14062 20.668ZM13.7109 20.668H12.1875C11.7668 20.668 11.4258 20.3269 11.4258 19.9062C11.4258 19.4856 11.7668 19.1445 12.1875 19.1445H13.7109C14.1316 19.1445 14.4727 19.4856 14.4727 19.9062C14.4727 20.3269 14.1316 20.668 13.7109 20.668ZM18.7891 16.0977H16.25C15.8293 16.0977 15.4883 15.7566 15.4883 15.3359C15.4883 14.9153 15.8293 14.5742 16.25 14.5742H18.7891C19.2097 14.5742 19.5508 14.9153 19.5508 15.3359C19.5508 15.7566 19.2097 16.0977 18.7891 16.0977ZM18.7891 13.0508H16.25C15.8293 13.0508 15.4883 12.7097 15.4883 12.2891C15.4883 11.8684 15.8293 11.5273 16.25 11.5273H18.7891C19.2097 11.5273 19.5508 11.8684 19.5508 12.2891C19.5508 12.7097 19.2097 13.0508 18.7891 13.0508Z" fill="#15023A"/>
<path d="M25.9221 13.466L24.4107 7.8252L21.8672 8.50673C22.7737 9.20355 23.3596 10.2979 23.3596 11.5271V16.5184L24.3063 16.2647C25.5234 15.9386 26.2482 14.6831 25.9221 13.466Z" fill="#15023A"/>
<path d="M18.9232 7.71871L24.017 6.35386L23.6227 4.88232L13.0371 7.71871H18.9232Z" fill="#15023A"/>
<path d="M1.77577 7.71874H7.1504L23.2277 3.41081L22.7677 1.69395C22.4416 0.476875 21.1861 -0.248027 19.969 0.078141L3.29164 4.54679C2.07451 4.87291 1.34966 6.12842 1.67578 7.34555L1.77577 7.71874Z" fill="#15023A"/>
</g>
<defs>
<clipPath id="clip0_1712_2989">
<rect width="26" height="26" fill="white"/>
</clipPath>
</defs>
</svg>
