<svg width="24" height="24" viewBox="0 0 24 24" fill="none" xmlns="http://www.w3.org/2000/svg">
<path d="M9.97333 10.9231C10.3047 11.0625 10.6485 11.1702 11 11.2447V24C10.7844 23.9442 10.5746 23.8679 10.3733 23.7722L2.37333 20.1948C1.66697 19.8789 1.06688 19.364 0.645666 18.7124C0.224457 18.0609 0.000188108 17.3006 0 16.5237V7.60031C0.00106002 7.24244 0.0503981 6.88637 0.146667 6.54183L9.97333 10.9231ZM15.76 7.93527L4.89333 2.80366L2.37333 3.92913C1.91886 4.12988 1.50696 4.41643 1.16 4.77323L10.7733 9.07414C11.1596 9.24638 11.5774 9.33537 12 9.33537C12.4226 9.33537 12.8404 9.24638 13.2267 9.07414L15.76 7.93527ZM22.84 4.77323C22.493 4.41643 22.0811 4.12988 21.6267 3.92913L13.6267 0.351748C13.1154 0.119903 12.5609 0 12 0C11.4391 0 10.8846 0.119903 10.3733 0.351748L7.32 1.71839L18.1867 6.84999L22.84 4.77323ZM23.8533 6.54183L19.1733 8.63199V11.9146C19.1733 12.1811 19.068 12.4367 18.8804 12.6252C18.6929 12.8136 18.4385 12.9195 18.1733 12.9195C17.9081 12.9195 17.6538 12.8136 17.4662 12.6252C17.2787 12.4367 17.1733 12.1811 17.1733 11.9146V9.51628L14.0267 10.9231C13.6931 11.0565 13.3499 11.164 13 11.2447V24C13.2156 23.9442 13.4254 23.8679 13.6267 23.7722L21.6267 20.1948C22.333 19.8789 22.9331 19.364 23.3543 18.7124C23.7755 18.0609 23.9998 17.3006 24 16.5237V7.60031C23.9989 7.24244 23.9496 6.88637 23.8533 6.54183Z" fill="#15023A"/>
</svg>
