<svg width="26" height="26" viewBox="0 0 26 26" fill="none" xmlns="http://www.w3.org/2000/svg">
<path d="M17.1266 8.38255L18.341 9.56638L18.0539 11.238C18.0048 11.5237 18.1222 11.8126 18.3568 11.9831C18.5912 12.1536 18.9023 12.1763 19.1591 12.0413L20.6611 11.252L22.1631 12.0413C22.1727 12.0463 22.5703 12.2704 22.9653 11.9831C23.1999 11.8127 23.3173 11.5237 23.2682 11.238L22.9811 9.56638L24.1956 8.38255C24.6464 7.94862 24.3928 7.1691 23.7733 7.08312L22.0935 6.83924L21.3445 5.31859C21.0714 4.75501 20.2508 4.75527 19.9778 5.31854L19.2288 6.83924L17.5489 7.08312C16.9291 7.16915 16.6759 7.94883 17.1266 8.38255Z" fill="#15023A"/>
<path d="M9.75288 5.71177L9.36385 7.97375C9.31469 8.25958 9.43211 8.5485 9.66669 8.71904C10.0612 9.00589 10.4577 8.78309 10.4691 8.7772L12.5013 7.709L14.5336 8.7772C14.7905 8.91214 15.1014 8.88964 15.336 8.71904C15.5706 8.5485 15.688 8.25953 15.6389 7.9737L15.2498 5.71177L16.8928 4.1094C17.1004 3.90702 17.1751 3.60428 17.0854 3.32851C16.9958 3.05279 16.7574 2.85182 16.4705 2.81018L14.1989 2.48017L13.1847 0.422398C12.9114 -0.140876 12.0911 -0.140723 11.818 0.422398L10.8039 2.48022L8.53232 2.81018C8.24538 2.85182 8.00699 3.05279 7.91735 3.32851C7.82771 3.60428 7.90237 3.90702 8.10993 4.1094L9.75288 5.71177Z" fill="#15023A"/>
<path d="M2.02172 9.56638L1.73462 11.238C1.68551 11.5237 1.80293 11.8126 2.03751 11.9831C2.27194 12.1536 2.58296 12.1763 2.83979 12.0413L4.3418 11.252L5.84376 12.0413C5.85336 12.0463 6.25097 12.2704 6.64604 11.9831C6.88062 11.8127 6.99804 11.5237 6.94893 11.238L6.66183 9.56638L7.87629 8.38255C8.32712 7.94862 8.07355 7.1691 7.45405 7.08312L5.77418 6.83924L5.02523 5.31859C4.7521 4.75501 3.93149 4.75527 3.65847 5.31854L2.90936 6.83924L1.2295 7.08312C0.609748 7.16915 0.356577 7.94883 0.807257 8.38255L2.02172 9.56638Z" fill="#15023A"/>
<path d="M7.1705 16.6975C7.1705 15.1377 5.90149 13.8687 4.34168 13.8687C0.58886 14.0241 0.589927 19.3715 4.34168 19.5263C5.90154 19.5263 7.1705 18.2573 7.1705 16.6975Z" fill="#15023A"/>
<path d="M23.49 16.6975C23.49 15.1377 22.2209 13.8687 20.6611 13.8687C16.9083 14.0241 16.9094 19.3715 20.6611 19.5263C22.2209 19.5263 23.49 18.2573 23.49 16.6975Z" fill="#15023A"/>
<path d="M15.3302 16.6975C15.3302 15.1377 14.0612 13.8687 12.5014 13.8687C8.74853 14.0241 8.74959 19.3715 12.5014 19.5263C14.0612 19.5263 15.3302 18.2573 15.3302 16.6975Z" fill="#15023A"/>
<path d="M7.37599 20.5985C4.27349 18.0568 -0.518887 20.323 -0.499944 24.3683V25.2384C-0.499944 25.6591 -0.158861 26.0002 0.261855 26.0002H6.26721C6.18266 25.7618 6.13619 25.5055 6.13619 25.2384V24.3683C6.13619 22.9585 6.59723 21.6545 7.37599 20.5985Z" fill="#15023A"/>
<path d="M20.6611 19.5264C19.5132 19.5264 18.4576 19.9282 17.6268 20.5982C18.4056 21.6542 18.8666 22.9582 18.8666 24.368V25.2381C18.8666 25.5052 18.8202 25.7615 18.7356 25.9999H24.741C25.1617 25.9999 25.5028 25.6588 25.5028 25.2381V24.368C25.5028 21.6983 23.3308 19.5264 20.6611 19.5264Z" fill="#15023A"/>
<path d="M12.5014 19.5264C9.83173 19.5264 7.65979 21.6984 7.65979 24.368V25.2381C7.65979 25.6588 8.00087 25.9999 8.42159 25.9999H16.5813C17.002 25.9999 17.3431 25.6588 17.3431 25.2381V24.368C17.3431 21.6983 15.1711 19.5264 12.5014 19.5264Z" fill="#15023A"/>
</svg>
