<svg width="12" height="12" viewBox="0 0 12 12" fill="none" xmlns="http://www.w3.org/2000/svg">
<path d="M6.60181 4.24902L5.99927 3.02832L5.39679 4.24899C5.34555 4.35275 5.2466 4.42466 5.13211 4.4413L3.78516 4.63705L4.7599 5.58713C4.84275 5.66787 4.88055 5.78424 4.86101 5.89829L4.63095 7.2398L5.83566 6.60645C5.93805 6.55262 6.06045 6.55262 6.16284 6.60645L7.36765 7.2398L7.13747 5.89834C7.11787 5.78429 7.15568 5.6679 7.23855 5.58713L8.2133 4.63705L6.86648 4.4413C6.75199 4.42466 6.65304 4.35275 6.60181 4.24902Z" fill="#15023A"/>
<path d="M10.707 0H1.29295C0.580031 0 0 0.580008 0 1.29295V9.20077C0 9.91371 0.580031 10.4937 1.29295 10.4937H4.34812L5.75138 11.897C5.8173 11.9629 5.90672 12 5.99995 12C6.09319 12 6.18263 11.963 6.24856 11.897L7.65183 10.4937H10.707C11.42 10.4937 12 9.91371 12 9.20077V1.29295C12 0.580008 11.42 0 10.707 0ZM9.21494 4.64367L7.86246 5.96194L8.17863 7.80424C8.1844 7.82948 8.18742 7.85578 8.18742 7.8828C8.18742 8.07666 8.03053 8.23388 7.83677 8.23437C7.8363 8.23437 7.83584 8.23437 7.83534 8.23437C7.7794 8.23437 7.72324 8.22103 7.6718 8.19398L6 7.31515L4.32837 8.19398C4.20994 8.25623 4.06638 8.24587 3.95813 8.16722C3.84987 8.08856 3.79566 7.95525 3.81827 7.82337L4.13747 5.96194L2.78501 4.64365C2.68915 4.55025 2.65467 4.41054 2.69602 4.28327C2.73738 4.15598 2.8474 4.06322 2.97982 4.044L4.84877 3.77238L5.68472 2.07874C5.74392 1.95874 5.86615 1.88278 5.99995 1.88278C6.13376 1.88278 6.25598 1.95874 6.31521 2.07872L7.15123 3.77238L9.02006 4.044C9.15248 4.06324 9.26252 4.15598 9.30384 4.28327C9.34526 4.41056 9.31078 4.55027 9.21494 4.64367Z" fill="#15023A"/>
</svg>
