<svg width="133" height="133" viewBox="0 0 133 133" fill="none" xmlns="http://www.w3.org/2000/svg">
<rect width="133" height="133" rx="9" fill="white"/>
<path d="M112.455 20.5454H85.1818V47.8181H112.455V20.5454Z" stroke="#15023A" stroke-width="7" stroke-miterlimit="10"/>
<path d="M48.8182 20.5454H21.5455V47.8181H48.8182V20.5454Z" stroke="#15023A" stroke-width="7" stroke-miterlimit="10"/>
<path d="M48.8182 84.1819H21.5455V111.455H48.8182V84.1819Z" stroke="#15023A" stroke-width="7" stroke-miterlimit="10"/>
<path d="M39.7273 29.6365H30.6364V38.7274H39.7273V29.6365Z" fill="#15023A"/>
<path d="M103.364 29.6365H94.2727V38.7274H103.364V29.6365Z" fill="#15023A"/>
<path d="M39.7273 93.2727H30.6364V102.364H39.7273V93.2727Z" fill="#15023A"/>
<path d="M67 16V47.8182" stroke="#15023A" stroke-width="7" stroke-miterlimit="10"/>
<path d="M71.5455 88.7273V116" stroke="#15023A" stroke-width="7" stroke-miterlimit="10"/>
<path d="M89.7273 106.909V116" stroke="#15023A" stroke-width="7" stroke-miterlimit="10"/>
<path d="M98.8182 97.8181V106.909" stroke="#15023A" stroke-width="7" stroke-miterlimit="10"/>
<path d="M112.455 106.909V116" stroke="#15023A" stroke-width="7" stroke-miterlimit="10"/>
<path d="M67 29.6365H76.0909" stroke="#15023A" stroke-width="7" stroke-miterlimit="10"/>
<path d="M53.3636 56.9092H89.7273" stroke="#15023A" stroke-width="7" stroke-miterlimit="10"/>
<path d="M17 66H26.0909" stroke="#15023A" stroke-width="7" stroke-miterlimit="10"/>
<path d="M26.0909 56.9092H35.1818" stroke="#15023A" stroke-width="7" stroke-miterlimit="10"/>
<path d="M35.1818 66H44.2727" stroke="#15023A" stroke-width="7" stroke-miterlimit="10"/>
<path d="M89.7273 66H98.8182" stroke="#15023A" stroke-width="7" stroke-miterlimit="10"/>
<path d="M98.8182 56.9092H107.909" stroke="#15023A" stroke-width="7" stroke-miterlimit="10"/>
<path d="M107.909 66H117" stroke="#15023A" stroke-width="7" stroke-miterlimit="10"/>
<path d="M89.7273 84.1819H98.8182" stroke="#15023A" stroke-width="7" stroke-miterlimit="10"/>
<path d="M98.8182 75.0908H107.909" stroke="#15023A" stroke-width="7" stroke-miterlimit="10"/>
<path d="M107.909 84.1819H117" stroke="#15023A" stroke-width="7" stroke-miterlimit="10"/>
<path d="M44.2727 75.0908H80.6363" stroke="#15023A" stroke-width="7" stroke-miterlimit="10"/>
<path d="M71.5455 93.2727H107.909" stroke="#15023A" stroke-width="7" stroke-miterlimit="10"/>
<path d="M62.4545 66H71.5454" stroke="#15023A" stroke-width="7" stroke-miterlimit="10"/>
<path d="M57.9091 38.7273H67" stroke="#15023A" stroke-width="7" stroke-miterlimit="10"/>
</svg>
