<svg width="17" height="16" viewBox="0 0 17 16" fill="none" xmlns="http://www.w3.org/2000/svg">
<g clip-path="url(#clip0_1706_1556)">
<path d="M16.4869 15.1295L12.3559 11.0646C13.4377 9.8893 14.1023 8.33495 14.1023 6.62455C14.1018 2.96568 11.0881 0 7.37025 0C3.65237 0 0.638672 2.96568 0.638672 6.62455C0.638672 10.2834 3.65237 13.2491 7.37025 13.2491C8.97663 13.2491 10.45 12.6935 11.6073 11.7697L15.7542 15.8507C15.9563 16.0498 16.2843 16.0498 16.4864 15.8507C16.6889 15.6517 16.6889 15.3286 16.4869 15.1295ZM7.37025 12.2299C4.22452 12.2299 1.67442 9.72029 1.67442 6.62455C1.67442 3.52881 4.22452 1.01923 7.37025 1.01923C10.516 1.01923 13.0661 3.52881 13.0661 6.62455C13.0661 9.72029 10.516 12.2299 7.37025 12.2299Z" fill="#15023A"/>
</g>
<defs>
<clipPath id="clip0_1706_1556">
<rect width="17" height="16" fill="white"/>
</clipPath>
</defs>
</svg>
