<svg width="26" height="26" viewBox="0 0 26 26" fill="none" xmlns="http://www.w3.org/2000/svg">
<path d="M24.5733 10.1768L22.5366 9.91792C22.3687 9.40117 22.1618 8.90283 21.9202 8.42942L23.1779 6.80983C23.6871 6.15442 23.6275 5.22925 23.0458 4.66592L21.3395 2.95967C20.7708 2.3725 19.8456 2.314 19.1891 2.82208L17.5717 4.07983C17.0982 3.83825 16.5999 3.63133 16.0821 3.46342L15.8232 1.43C15.7257 0.61425 15.0334 0 14.2133 0H11.7867C10.9666 0 10.2743 0.61425 10.1768 1.42675L9.91792 3.46342C9.40008 3.63133 8.90175 3.83717 8.42833 4.07983L6.80983 2.82208C6.1555 2.314 5.23033 2.3725 4.66592 2.95425L2.95967 4.65942C2.3725 5.22925 2.31292 6.15442 2.82208 6.81092L4.07983 8.42942C3.83717 8.90283 3.63133 9.40117 3.46342 9.91792L1.43 10.1768C0.61425 10.2743 0 10.9666 0 11.7867V14.2133C0 15.0334 0.61425 15.7257 1.42675 15.8232L3.46342 16.0821C3.63133 16.5988 3.83825 17.0972 4.07983 17.5706L2.82208 19.1902C2.31292 19.8456 2.3725 20.7708 2.95425 21.3341L4.6605 23.0403C5.23033 23.6264 6.15442 23.6849 6.81092 23.1768L8.42942 21.9191C8.90283 22.1618 9.40117 22.3687 9.91792 22.5355L10.1768 24.5678C10.2743 25.3857 10.9666 26 11.7867 26H14.2133C15.0334 26 15.7257 25.3858 15.8232 24.5733L16.0821 22.5366C16.5988 22.3687 17.0972 22.1618 17.5706 21.9202L19.1902 23.1779C19.8456 23.6871 20.7708 23.6275 21.3341 23.0458L23.0403 21.3395C23.6275 20.7697 23.6871 19.8456 23.1779 19.1891L21.9202 17.5706C22.1628 17.0972 22.3698 16.5988 22.5366 16.0821L24.5689 15.8232C25.3847 15.7257 25.9989 15.0334 25.9989 14.2133V11.7867C26 10.9666 25.3858 10.2743 24.5733 10.1768ZM13 18.4167C10.0133 18.4167 7.58333 15.9868 7.58333 13C7.58333 10.0133 10.0133 7.58333 13 7.58333C15.9868 7.58333 18.4167 10.0133 18.4167 13C18.4167 15.9868 15.9868 18.4167 13 18.4167Z" fill="#15023A"/>
</svg>
