<svg width="26" height="26" viewBox="0 0 26 26" fill="none" xmlns="http://www.w3.org/2000/svg">
<path fill-rule="evenodd" clip-rule="evenodd" d="M13.2961 3.50453C11.4483 3.443 9.58152 3.94711 7.96981 5.02293C6.15963 6.23251 4.89458 8.01871 4.3119 10.0155C4.15098 9.99586 3.9583 10.0045 3.7295 10.0692C2.87525 10.3116 2.23276 11.0116 1.94387 11.6281C1.56918 12.4315 1.41116 13.494 1.57785 14.5909C1.74338 15.6844 2.20532 16.5857 2.7831 17.1453C3.36261 17.7052 4.01694 17.8872 4.66694 17.7505C5.63472 17.544 6.11456 17.3894 5.97907 16.4878L5.32301 12.1172C5.45532 9.75175 6.67992 7.525 8.72814 6.15566C11.4697 4.3244 15.0641 4.44169 17.6791 6.44918C19.4982 7.84393 20.5544 9.93375 20.6763 12.1276L20.2175 15.1849C19.1943 17.9851 16.6576 19.9247 13.7222 20.2H11.7675C11.2631 20.2 10.857 20.6062 10.857 21.11V21.5901C10.857 22.0942 11.2631 22.5004 11.7675 22.5004H14.2321C14.7362 22.5004 15.1406 22.0942 15.1406 21.5901V21.3391C17.3541 20.7989 19.2862 19.4385 20.5443 17.5414L21.3338 17.7508C21.9763 17.9175 22.6384 17.7052 23.2177 17.1456C23.7954 16.5857 24.2571 15.6847 24.4229 14.5912C24.5902 13.4943 24.4275 12.4335 24.0572 11.6284C23.6854 10.8232 23.1316 10.3119 22.4923 10.1285C22.2245 10.0513 21.9338 10.023 21.6845 10.0155C21.1576 8.20995 20.0728 6.56791 18.5093 5.36902C16.9722 4.18949 15.1438 3.5652 13.2961 3.50453Z" fill="#15023A"/>
<path fill-rule="evenodd" clip-rule="evenodd" d="M16.1798 11.3674C16.8313 11.3674 17.3594 11.8955 17.3608 12.5487C17.3594 13.2001 16.8313 13.7297 16.1798 13.7297C15.5267 13.7297 14.9971 13.2001 14.9971 12.5487C14.9971 11.8958 15.5269 11.3674 16.1798 11.3674ZM12.9992 11.3674C13.6521 11.3674 14.1801 11.8955 14.1801 12.5487C14.1801 13.2001 13.6521 13.7297 12.9992 13.7297C12.3457 13.7297 11.8176 13.2001 11.8176 12.5487C11.8176 11.8958 12.3457 11.3674 12.9992 11.3674ZM9.81965 11.3674C10.4711 11.3674 11.0006 11.8955 11.0006 12.5487C11.0006 13.2001 10.4711 13.7297 9.81965 13.7297C9.16676 13.7297 8.63838 13.2001 8.63838 12.5487C8.63838 11.8958 9.16676 11.3674 9.81965 11.3674ZM12.9992 6.29395C9.53538 6.29395 6.74414 8.99332 6.74414 12.5487C6.74414 14.2563 7.38981 15.7655 8.44165 16.8728L8.06841 18.546C7.94534 19.0966 8.32725 19.467 8.82212 19.1914L10.4561 18.2799C11.2326 18.6171 12.0915 18.8034 12.9992 18.8034C16.4641 18.8034 19.2536 16.1058 19.2536 12.5487C19.2536 8.99332 16.4641 6.29395 12.9992 6.29395Z" fill="#15023A"/>
</svg>
