<svg width="22" height="26" viewBox="0 0 22 26" fill="none" xmlns="http://www.w3.org/2000/svg">
<path d="M10.6819 12.5242C12.4025 12.5242 13.8924 11.9071 15.1097 10.6896C16.3271 9.47222 16.9442 7.98271 16.9442 6.26192C16.9442 4.54171 16.3271 3.05201 15.1095 1.83426C13.892 0.617106 12.4023 0 10.6819 0C8.96107 0 7.47156 0.617106 6.25421 1.83446C5.03686 3.05181 4.41956 4.54151 4.41956 6.26192C4.41956 7.98271 5.03686 9.47242 6.25441 10.6898C7.47196 11.9069 8.96167 12.5242 10.6819 12.5242Z" fill="#15023A"/>
<path d="M21.6392 19.9927C21.6041 19.4861 21.5331 18.9335 21.4285 18.3499C21.323 17.7619 21.1871 17.2061 21.0245 16.6981C20.8565 16.1731 20.6279 15.6545 20.3455 15.1576C20.0523 14.6419 19.7079 14.1928 19.3215 13.8232C18.9175 13.4366 18.4227 13.1258 17.8507 12.8991C17.2806 12.6735 16.6488 12.5593 15.973 12.5593C15.7076 12.5593 15.4509 12.6682 14.9552 12.9909C14.6501 13.1899 14.2932 13.42 13.8949 13.6745C13.5543 13.8915 13.0929 14.0948 12.523 14.2789C11.967 14.4588 11.4025 14.55 10.8453 14.55C10.2881 14.55 9.72374 14.4588 9.16714 14.2789C8.59783 14.095 8.13644 13.8917 7.79625 13.6747C7.40171 13.4226 7.04465 13.1925 6.73501 12.9907C6.2399 12.668 5.98302 12.5591 5.71761 12.5591C5.04159 12.5591 4.41 12.6735 3.8401 12.8993C3.26842 13.1256 2.77351 13.4364 2.36905 13.8234C1.98283 14.1932 1.63828 14.6421 1.34549 15.1576C1.06322 15.6545 0.83471 16.1729 0.666499 16.6983C0.50404 17.2063 0.368161 17.7619 0.262632 18.3499C0.158095 18.9327 0.0870813 19.4855 0.0519711 19.9933C0.0174559 20.4908 0 21.0072 0 21.5286C0 22.8858 0.431439 23.9846 1.28222 24.7949C2.12248 25.5945 3.2343 26.0001 4.58635 26.0001H17.1054C18.4575 26.0001 19.5689 25.5947 20.4093 24.7949C21.2603 23.9852 21.6918 22.8862 21.6918 21.5285C21.6916 21.0046 21.6739 20.4878 21.6392 19.9927Z" fill="#15023A"/>
</svg>
