<svg width="32" height="20" viewBox="0 0 32 20" fill="none" xmlns="http://www.w3.org/2000/svg">
<path d="M24.6667 12.7271C24.1651 12.7271 23.7576 13.1346 23.7576 13.6361C23.7576 14.1377 24.1651 14.5452 24.6667 14.5452C25.1682 14.5452 25.5757 14.1377 25.5757 13.6361C25.5757 13.1346 25.1682 12.7271 24.6667 12.7271Z" fill="#15023A"/>
<path d="M30.1212 0H9.16636V2.72727C9.16636 3.22976 8.75976 3.63636 8.25727 3.63636C7.75479 3.63636 7.34818 3.22976 7.34818 2.72727V0H0.909091C0.406606 0 0 0.406606 0 0.909091V6.36364C0 6.86612 0.406606 7.27273 0.909091 7.27273C2.41297 7.27273 3.63636 8.49612 3.63636 10C3.63636 11.5039 2.41297 12.7273 0.909091 12.7273C0.406606 12.7273 0 13.1339 0 13.6364V19.0909C0 19.5934 0.406606 20 0.909091 20H7.27273V17.2727C7.27273 16.7702 7.67933 16.3636 8.18182 16.3636C8.6843 16.3636 9.09091 16.7702 9.09091 17.2727V20H30.1212C30.6237 20 31.0303 19.5934 31.0303 19.0909V0.909091C31.0303 0.406606 30.6237 0 30.1212 0ZM9.09091 13.6364C9.09091 14.1388 8.6843 14.5455 8.18182 14.5455C7.67933 14.5455 7.27273 14.1388 7.27273 13.6364V11.8182C7.27273 11.3157 7.67933 10.9091 8.18182 10.9091C8.6843 10.9091 9.09091 11.3157 9.09091 11.8182V13.6364ZM9.09091 8.18182C9.09091 8.6843 8.6843 9.09091 8.18182 9.09091C7.67933 9.09091 7.27273 8.6843 7.27273 8.18182V6.36364C7.27273 5.86115 7.67933 5.45455 8.18182 5.45455C8.6843 5.45455 9.09091 5.86115 9.09091 6.36364V8.18182ZM14.6667 6.36364C14.6667 4.85976 15.8901 3.63636 17.3939 3.63636C18.8978 3.63636 20.1212 4.85976 20.1212 6.36364C20.1212 7.86752 18.8978 9.09091 17.3939 9.09091C15.8901 9.09091 14.6667 7.86752 14.6667 6.36364ZM16.8897 16.2109C16.4716 15.9321 16.3588 15.3684 16.6376 14.9502L23.9103 4.04115C24.1882 3.62303 24.7519 3.51115 25.171 3.78903C25.5891 4.06782 25.7019 4.63152 25.4231 5.0497L18.1504 15.9588C17.8761 16.3707 17.3145 16.4925 16.8897 16.2109ZM24.6667 16.3636C23.1628 16.3636 21.9394 15.1402 21.9394 13.6364C21.9394 12.1325 23.1628 10.9091 24.6667 10.9091C26.1705 10.9091 27.3939 12.1325 27.3939 13.6364C27.3939 15.1402 26.1705 16.3636 24.6667 16.3636Z" fill="#15023A"/>
<path d="M17.3941 5.45459C16.8925 5.45459 16.485 5.8621 16.485 6.36368C16.485 6.86526 16.8925 7.27277 17.3941 7.27277C17.8957 7.27277 18.3032 6.86526 18.3032 6.36368C18.3032 5.8621 17.8957 5.45459 17.3941 5.45459Z" fill="#15023A"/>
</svg>
