<svg width="145" height="145" viewBox="0 0 145 145" fill="none" xmlns="http://www.w3.org/2000/svg">
<path fill-rule="evenodd" clip-rule="evenodd" d="M39.8874 94.5012C39.8874 95.8028 38.8319 96.8592 37.5295 96.8592C36.2262 96.8592 35.1715 95.8028 35.1715 94.5012V85.07C35.1715 83.7681 36.2264 82.712 37.5295 82.712C38.8322 82.712 39.8874 83.7681 39.8874 85.07V94.5012ZM39.8874 118.08C39.8874 119.382 38.8319 120.438 37.5295 120.438C36.2262 120.438 35.1715 119.382 35.1715 118.08V108.648C35.1715 107.346 36.2264 106.291 37.5295 106.291C38.8322 106.291 39.8874 107.346 39.8874 108.648V118.08ZM60.9928 47.8257C60.1934 48.8523 58.7108 49.0372 57.6842 48.2366C56.657 47.436 56.4726 45.954 57.2738 44.9271L63.0687 37.487C63.8702 36.4607 65.3522 36.2758 66.3794 37.0767C67.4054 37.8773 67.5903 39.3593 66.7889 40.3862L60.9928 47.8257ZM126.594 54.5209L82.5262 20.1873L75.4849 29.2254C74.6837 30.2529 73.2026 30.437 72.1745 29.6364C71.1479 28.836 70.9633 27.354 71.7645 26.3274L78.806 17.2884L62.2103 4.35936C56.8422 0.176732 49.0281 1.14699 44.8452 6.51595L37.7317 15.6464C45.5973 21.7747 47.0051 33.1184 40.8766 40.9832C34.7487 48.8483 23.4044 50.257 15.5399 44.1293L8.4258 53.2609C7.70646 54.1847 7.13864 55.1816 6.72035 56.2192C8.96559 55.1312 11.4813 54.5209 14.1338 54.5209H126.594ZM14.1335 59.2359H35.1712V70.9229C35.1712 72.225 36.2262 73.2808 37.5292 73.2808C38.8319 73.2808 39.8871 72.225 39.8871 70.9229V59.2359H130.866C137.672 59.2359 143.24 64.804 143.24 71.6099V83.1841C133.27 83.1841 125.186 91.2673 125.186 101.238C125.186 111.209 133.27 119.292 143.24 119.292V130.868C143.24 137.673 137.672 143.24 130.866 143.24H39.8874V132.228C39.8874 130.926 38.8319 129.87 37.5295 129.87C36.2262 129.87 35.1715 130.926 35.1715 132.228V143.24H14.1335C7.32725 143.24 1.75977 137.673 1.75977 130.868V119.292C11.7299 119.292 19.8134 111.209 19.8134 101.238C19.8134 91.2676 11.7299 83.1841 1.75977 83.1841V71.6099C1.75977 64.804 7.32725 59.2359 14.1335 59.2359Z" fill="#15023A"/>
</svg>
