<svg width="1500" height="288" viewBox="0 0 1500 288" fill="none" xmlns="http://www.w3.org/2000/svg">
<g filter="url(#filter0_b_223_111)">
<path d="M1.58451 223.079C8.45073 223.607 15.0529 224.135 21.3909 224.662C27.729 224.926 33.5388 225.058 38.8205 225.058C49.9121 225.058 58.6269 223.871 64.965 221.495C71.303 219.12 74.4721 214.369 74.4721 207.242C74.4721 201.7 72.6235 195.761 68.9263 189.426C65.2291 182.828 60.6076 175.966 55.0618 168.839C49.516 161.713 43.5741 154.322 37.236 146.668C30.898 138.75 24.9561 130.832 19.4103 122.914C13.8645 114.731 9.24299 106.549 5.54579 98.3671C1.8486 90.1849 0 82.0028 0 73.8207C0 59.04 2.7729 47.1627 8.31869 38.1887C13.8645 28.9508 20.8627 21.8244 29.3135 16.8096C38.0283 11.5308 47.6674 7.96759 58.2308 6.12002C68.7942 4.27243 78.9615 3.34863 88.7327 3.34863C95.0707 3.34863 101.013 3.61258 106.558 4.14047C112.368 4.66834 117.386 5.19621 121.611 5.72409C126.101 6.25198 129.798 6.77986 132.703 7.30773C135.608 7.83562 137.324 8.09957 137.853 8.09957V68.6738C131.25 68.1459 125.308 67.75 120.027 67.4861C114.745 66.9582 109.992 66.6943 105.766 66.6943C95.7309 66.6943 88.3365 68.146 83.583 71.0493C78.8295 73.9526 76.4527 79.6273 76.4527 88.0734C76.4527 93.0883 78.3013 98.631 81.9985 104.702C85.6957 110.772 90.3172 117.239 95.863 124.101C101.409 130.964 107.351 138.222 113.689 145.876C120.027 153.267 125.969 161.053 131.515 169.235C137.06 177.153 141.682 185.203 145.379 193.386C149.076 201.568 150.925 209.75 150.925 217.932C150.925 232.449 147.888 244.326 141.814 253.564C136.004 262.802 128.478 269.928 119.235 274.943C109.992 279.958 99.6922 283.389 88.3365 285.237C77.245 287.084 66.2854 288.008 55.4579 288.008C48.5917 288.008 41.9896 287.744 35.6515 287.216C29.5776 286.688 24.0318 286.161 19.0141 285.633C14.2606 285.105 10.2993 284.577 7.1303 284.049C4.22537 283.521 2.37677 283.257 1.58451 283.257V223.079Z" fill="url(#paint0_linear_223_111)"/>
<path d="M217.49 284.445H155.298L234.523 7.30773H296.715L376.337 284.445H313.749L296.715 224.662C294.075 233.372 290.509 240.499 286.02 246.042C281.795 251.32 275.06 253.96 265.817 253.96C256.574 253.96 249.708 251.188 245.219 245.646C240.993 240.103 237.56 232.977 234.919 224.267L217.49 284.445ZM265.817 116.183L238.088 212.785H293.15L265.817 116.183Z" fill="url(#paint1_linear_223_111)"/>
<path d="M390.52 284.445V7.30773H452.712V272.172C456.146 266.101 459.975 260.294 464.2 254.752C468.69 248.945 473.971 243.93 480.045 239.707C486.119 235.22 493.25 231.657 501.436 229.017C509.887 226.114 519.79 224.662 531.146 224.662H552.537V284.445H390.52Z" fill="url(#paint2_linear_223_111)"/>
<path d="M962.52 284.445C962.52 250.133 960.275 221.495 955.785 198.532C951.56 175.306 946.278 156.83 939.94 143.105C933.602 129.116 926.736 119.218 919.342 113.412C911.947 107.605 905.213 104.702 899.139 104.702C893.329 104.702 888.576 106.813 884.879 111.036C881.181 114.995 879.333 120.142 879.333 126.477V284.445H817.141V7.30773H848.435C865.336 7.30773 880.125 12.4546 892.801 22.7482C905.477 33.0419 916.437 46.2389 925.68 62.3392C934.923 78.4396 942.581 96.3876 948.655 116.183C954.729 135.979 959.351 155.378 962.52 174.382V7.30773H1024.71V284.445H962.52Z" fill="url(#paint3_linear_223_111)"/>
<path d="M1056.21 284.445V7.30773H1118.4V284.445H1056.21Z" fill="url(#paint4_linear_223_111)"/>
<path d="M1143.87 223.079C1150.73 223.607 1157.33 224.135 1163.67 224.662C1170.01 224.926 1175.82 225.058 1181.1 225.058C1192.19 225.058 1200.91 223.871 1207.25 221.495C1213.58 219.12 1216.75 214.369 1216.75 207.242C1216.75 201.7 1214.9 195.761 1211.21 189.426C1207.51 182.828 1202.89 175.966 1197.34 168.839C1191.8 161.713 1185.86 154.322 1179.52 146.668C1173.18 138.75 1167.24 130.832 1161.69 122.914C1156.15 114.731 1151.52 106.549 1147.83 98.3671C1144.13 90.1849 1142.28 82.0028 1142.28 73.8207C1142.28 59.04 1145.05 47.1627 1150.6 38.1887C1156.15 28.9508 1163.14 21.8244 1171.59 16.8096C1180.31 11.5308 1189.95 7.96759 1200.51 6.12002C1211.08 4.27243 1221.24 3.34863 1231.01 3.34863C1237.35 3.34863 1243.29 3.61258 1248.84 4.14047C1254.65 4.66834 1259.67 5.19621 1263.89 5.72409C1268.38 6.25198 1272.08 6.77986 1274.98 7.30773C1277.89 7.83562 1279.61 8.09957 1280.13 8.09957V68.6738C1273.53 68.1459 1267.59 67.75 1262.31 67.4861C1257.03 66.9582 1252.27 66.6943 1248.05 66.6943C1238.01 66.6943 1230.62 68.146 1225.86 71.0493C1221.11 73.9526 1218.73 79.6273 1218.73 88.0734C1218.73 93.0883 1220.58 98.631 1224.28 104.702C1227.98 110.772 1232.6 117.239 1238.14 124.101C1243.69 130.964 1249.63 138.222 1255.97 145.876C1262.31 153.267 1268.25 161.053 1273.8 169.235C1279.34 177.153 1283.96 185.203 1287.66 193.386C1291.36 201.568 1293.21 209.75 1293.21 217.932C1293.21 232.449 1290.17 244.326 1284.1 253.564C1278.29 262.802 1270.76 269.928 1261.52 274.943C1252.27 279.958 1241.97 283.389 1230.62 285.237C1219.53 287.084 1208.57 288.008 1197.74 288.008C1190.87 288.008 1184.27 287.744 1177.93 287.216C1171.86 286.688 1166.31 286.161 1161.3 285.633C1156.54 285.105 1152.58 284.577 1149.41 284.049C1146.51 283.521 1144.66 283.257 1143.87 283.257V223.079Z" fill="url(#paint5_linear_223_111)"/>
<path d="M1500 67.0902H1430.28V284.445H1367.69V67.0902H1297.98V7.30773H1500V67.0902Z" fill="url(#paint6_linear_223_111)"/>
<path d="M611.334 19.1647C629.577 6.38823 649.376 0 670.73 0C692.085 0 711.813 6.38823 729.914 19.1647C748.016 31.7708 762.299 49.0616 772.764 71.0371C783.371 92.8423 788.674 116.606 788.674 142.33C788.674 168.053 783.371 191.902 772.764 213.878C762.299 235.683 748.016 252.974 729.914 265.75C711.813 278.356 692.085 284.659 670.73 284.659C654.75 284.659 639.477 280.912 624.91 273.416C610.344 265.921 597.758 255.785 587.151 243.008C576.545 230.232 568.13 215.07 561.908 197.524C555.685 179.978 552.574 161.58 552.574 142.33C552.574 116.606 557.807 92.8423 568.272 71.0371C578.878 49.0616 593.232 31.7708 611.334 19.1647ZM721.005 247.608C727.652 243.008 732.743 236.961 736.278 229.465C739.814 221.799 741.723 213.793 742.006 205.445C742.289 196.928 741.864 188.069 740.733 178.87C739.602 169.671 737.763 160.983 735.218 152.806C732.813 144.459 730.409 136.964 728.005 130.32C725.742 123.676 723.692 118.395 721.853 114.477L719.308 108.6C718.884 107.748 718.247 106.556 717.399 105.022C716.692 103.489 715.065 100.423 712.52 95.8234C709.974 91.2239 707.287 86.7947 704.459 82.5359C701.772 78.2771 698.307 73.422 694.064 67.9708C689.963 62.3491 685.862 57.4089 681.761 53.1501C677.66 48.7209 672.993 44.6324 667.76 40.8847C662.669 36.9666 657.578 34.1557 652.487 32.4522C647.537 30.7487 642.234 30.2376 636.577 30.919C631.062 31.4301 625.688 33.4743 620.456 37.0517C611.405 43.3548 605.253 52.4687 602 64.3933C598.748 76.1477 598.041 88.2427 599.879 100.678C601.718 113.114 604.192 125.124 607.304 136.708C610.556 148.292 613.809 157.747 617.062 165.072L621.941 176.06C622.365 176.911 622.93 178.104 623.638 179.637C624.486 181.17 626.183 184.237 628.729 188.836C631.416 193.436 634.103 197.865 636.79 202.124C639.477 206.382 642.871 211.323 646.972 216.944C651.214 222.396 655.386 227.336 659.487 231.765C663.73 236.024 668.397 240.112 673.488 244.03C678.72 247.778 683.812 250.504 688.761 252.207C693.852 253.911 699.156 254.507 704.671 253.996C710.328 253.315 715.772 251.185 721.005 247.608Z" fill="url(#paint7_linear_223_111)"/>
</g>
<defs>
<filter id="filter0_b_223_111" x="-20" y="-20" width="1540" height="328.008" filterUnits="userSpaceOnUse" color-interpolation-filters="sRGB">
<feFlood flood-opacity="0" result="BackgroundImageFix"/>
<feGaussianBlur in="BackgroundImageFix" stdDeviation="10"/>
<feComposite in2="SourceAlpha" operator="in" result="effect1_backgroundBlur_223_111"/>
<feBlend mode="normal" in="SourceGraphic" in2="effect1_backgroundBlur_223_111" result="shape"/>
</filter>
<linearGradient id="paint0_linear_223_111" x1="276.268" y1="3.34863" x2="276.268" y2="288.008" gradientUnits="userSpaceOnUse">
<stop stop-color="white" stop-opacity="0.35"/>
<stop offset="0.831611" stop-color="white" stop-opacity="0"/>
</linearGradient>
<linearGradient id="paint1_linear_223_111" x1="276.268" y1="3.34863" x2="276.268" y2="288.008" gradientUnits="userSpaceOnUse">
<stop stop-color="white" stop-opacity="0.35"/>
<stop offset="0.831611" stop-color="white" stop-opacity="0"/>
</linearGradient>
<linearGradient id="paint2_linear_223_111" x1="276.268" y1="3.34863" x2="276.268" y2="288.008" gradientUnits="userSpaceOnUse">
<stop stop-color="white" stop-opacity="0.35"/>
<stop offset="0.831611" stop-color="white" stop-opacity="0"/>
</linearGradient>
<linearGradient id="paint3_linear_223_111" x1="1158.57" y1="3.34863" x2="1158.57" y2="288.008" gradientUnits="userSpaceOnUse">
<stop stop-color="white" stop-opacity="0.35"/>
<stop offset="0.831611" stop-color="white" stop-opacity="0"/>
</linearGradient>
<linearGradient id="paint4_linear_223_111" x1="1158.57" y1="3.34863" x2="1158.57" y2="288.008" gradientUnits="userSpaceOnUse">
<stop stop-color="white" stop-opacity="0.35"/>
<stop offset="0.831611" stop-color="white" stop-opacity="0"/>
</linearGradient>
<linearGradient id="paint5_linear_223_111" x1="1158.57" y1="3.34863" x2="1158.57" y2="288.008" gradientUnits="userSpaceOnUse">
<stop stop-color="white" stop-opacity="0.35"/>
<stop offset="0.831611" stop-color="white" stop-opacity="0"/>
</linearGradient>
<linearGradient id="paint6_linear_223_111" x1="1158.57" y1="3.34863" x2="1158.57" y2="288.008" gradientUnits="userSpaceOnUse">
<stop stop-color="white" stop-opacity="0.35"/>
<stop offset="0.831611" stop-color="white" stop-opacity="0"/>
</linearGradient>
<linearGradient id="paint7_linear_223_111" x1="670.624" y1="0" x2="670.624" y2="284.659" gradientUnits="userSpaceOnUse">
<stop stop-color="white" stop-opacity="0.35"/>
<stop offset="0.831611" stop-color="white" stop-opacity="0"/>
</linearGradient>
</defs>
</svg>
