<svg width="162" height="36" viewBox="0 0 162 36" fill="none" xmlns="http://www.w3.org/2000/svg">
<path d="M154.455 29.3407C154.455 32.989 155.072 34.5305 156.459 34.5305C157.847 34.5305 159.08 31.7558 159.953 29.0324C160.313 27.9533 160.673 27.3881 160.93 27.3881C161.238 27.3881 161.444 28.0047 161.495 29.2379L161.701 32.7321C161.752 33.9139 160.827 35.0958 159.645 35.3527C158.309 35.661 156.511 35.9693 155.072 35.9693C149.163 35.9693 146.285 33.1945 146.285 29.3407V4.1108C146.285 2.92895 147.261 1.95264 148.443 1.95264H150.19C151.372 1.95264 152.554 2.87756 152.811 4.05941L153.787 8.47849C154.096 9.60896 155.226 10.5339 156.408 10.5339H158.617C159.799 10.5339 160.776 10.8936 160.776 11.2533C160.776 11.6643 159.799 11.9727 158.617 11.9727C158.155 11.9727 157.693 11.9727 157.23 11.9727C156.048 11.9727 152.297 11.9727 151.115 11.9727C149.933 11.9727 148.957 12.1268 148.957 12.3323C148.957 12.5379 149.625 12.692 150.396 12.7434L151.783 12.7948C153.273 12.8976 154.455 14.1308 154.455 15.621V29.3407Z" fill="#15023A"/>
<path d="M131.331 13.7197C131.331 15.9293 134.671 17.5736 136.11 18.4471C138.679 19.9373 143.715 21.9927 143.715 27.5422C143.715 31.653 140.683 35.9693 133.746 35.9693C131.228 35.9693 128.916 35.4555 127.272 35.0444C126.141 34.7361 125.216 33.4515 125.268 32.2182L125.473 27.645C125.525 26.6173 125.782 26.0521 126.141 26.0521C126.45 26.0521 126.861 26.4631 127.272 27.2853C128.916 30.4198 131.742 34.5305 135.185 34.5305C137.446 34.5305 137.703 32.4751 137.703 31.5502C137.703 28.2616 135.339 27.1825 132.153 25.5896C129.841 24.4591 125.268 22.5065 125.268 17.8819C125.268 14.3363 128.145 10.5339 134.774 10.5339C136.521 10.5339 138.679 11.0991 140.221 11.5616C141.402 11.9213 142.225 13.2059 142.122 14.3877L141.916 16.957C141.865 17.5736 141.659 17.8819 141.351 17.8819C141.094 17.8819 140.837 17.6763 140.58 17.3167C139.09 15.2099 136.315 11.9726 133.335 11.9726C131.794 11.9726 131.382 13.0003 131.331 13.7197Z" fill="#15023A"/>
<path d="M119.953 10.9393C120.055 10.9393 120.21 10.8879 120.312 10.8879C121.289 10.8879 122.008 11.6073 122.008 12.6864V33.8055C122.008 34.9874 121.083 35.9637 119.901 35.9637H115.996C114.814 35.9637 113.838 34.9874 113.838 33.8055V14.1252C113.838 12.9433 114.814 11.8129 115.945 11.6073L119.953 10.9393Z" fill="#15023A"/>
<path d="M88.1797 14.1615C88.1797 12.9797 89.1046 11.8492 90.2865 11.6437L94.2431 10.9757C94.3458 10.9757 94.5 10.9243 94.6028 10.9243C95.6305 10.9243 96.3499 11.6437 96.2985 12.7227C96.1957 13.9046 96.0415 15.035 95.7846 16.2169C95.3735 18.2723 94.8597 21.2012 94.6542 24.0274C94.6028 25.2092 94.7055 26.1341 94.8597 26.1341C95.0652 26.1341 95.168 25.2092 95.3735 24.0274C95.4763 22.9997 95.6819 21.972 95.8874 21.0471C96.9151 16.628 98.6108 10.5646 104.16 10.5646C108.425 10.5646 110.532 13.5449 110.532 18.0154V33.8418C110.532 35.0237 109.607 36 108.425 36H104.52C103.338 36 102.362 35.0237 102.362 33.8418V18.0154C102.362 16.7307 101.848 15.96 100.872 15.96C97.6859 15.96 96.3499 24.2843 96.3499 34.5612C96.3499 34.5612 96.4526 36 94.2431 36H90.3378C89.156 36 88.1797 35.0237 88.1797 33.8418V14.1615Z" fill="#15023A"/>
<path d="M73.7796 10.5339C80.6651 10.5339 85.4953 14.8502 85.4953 23.2773C85.4953 31.7044 80.6651 35.9693 73.7796 35.9693C66.9454 35.9693 62.1152 31.7044 62.1152 23.2773C62.1152 14.8502 66.9454 10.5339 73.7796 10.5339ZM75.167 34.5305C78.6097 34.5305 77.4279 24.4077 77.3251 23.2773C77.171 22.0954 75.835 11.9726 72.3922 11.9726C69.0008 11.9726 70.1312 22.0954 70.2854 23.2773C70.4396 24.4077 71.7756 34.5305 75.167 34.5305Z" fill="#15023A"/>
<path d="M57.1611 0C58.3429 0 59.2678 0.976309 59.2678 2.15816V33.8111C59.2678 34.993 58.3429 35.9693 57.1611 35.9693H53.2558C52.074 35.9693 51.0977 34.993 51.0977 33.8111V2.15816C51.0977 0.976309 52.074 0 53.2558 0H57.1611Z" fill="#15023A"/>
<path d="M39.3078 10.5339C45.3712 10.5339 47.6321 14.028 47.6321 18.8582V32.4238C47.6321 33.6056 46.7072 34.6847 45.5253 34.8902L41.5687 35.6096C41.4146 35.661 41.209 35.661 41.0549 35.661C40.1813 35.661 39.4619 35.1985 39.5647 34.5305C39.6161 34.0167 39.6675 33.5542 39.7702 33.0404C40.1813 31.2933 40.7466 28.2616 40.9007 24.7674C40.9521 23.5856 40.7979 22.6093 40.6438 22.6093C40.4896 22.6093 40.3869 23.5856 40.2327 24.7674C40.0272 27.2339 39.4619 29.0838 39.4619 29.0838C38.6398 32.1154 36.6358 35.9693 31.6001 35.9693C27.7976 35.9693 25.0742 33.657 25.0742 30.0087C25.0742 25.0244 30.7779 22.4551 36.4302 21.0164C37.5607 20.708 37.6121 20.1942 36.4816 19.7831L28.8253 16.957C27.6948 16.5459 27.3351 15.4154 28.2087 14.5933C30.0071 12.949 33.5527 10.5339 39.3078 10.5339ZM39.1022 26.4117C39.3592 25.2299 39.4619 23.6884 39.4619 22.9176C39.4619 22.5579 39.2564 22.3524 38.9481 22.3524C38.6398 22.3524 38.2287 22.5065 37.7662 22.8662C34.9915 25.1271 33.2444 27.5422 33.2444 30.8822C33.2444 32.2182 34.1693 32.6293 35.0429 32.6293C37.4065 32.6293 38.5884 28.8782 39.1022 26.4117ZM39.4619 18.8582C39.4619 16.289 39.5647 11.9726 37.6121 11.9726C36.3275 11.9726 35.6081 13.7711 35.197 15.3127C34.8887 16.4431 35.7109 17.7791 36.7899 18.1902L37.5093 18.4985C38.5884 18.9096 39.4619 19.1665 39.4619 19.0637C39.4619 18.9096 39.4619 18.8582 39.4619 18.8582Z" fill="#15023A"/>
<path d="M16.7 30.0087C16.7 26.5145 14.0794 24.5105 9.71171 21.633C5.85786 19.1151 0 16.7 0 10.1742C0 4.26493 4.41908 0 11.5616 0C14.5933 0 17.7791 1.18185 19.7317 2.05539C20.7594 2.51785 21.5816 3.85385 21.5302 4.98432L21.1705 10.6366C21.1191 11.7157 20.8622 12.2809 20.4511 12.2809C20.1428 12.2809 19.7317 11.8699 19.3206 11.0477C17.3166 7.19386 13.8739 1.43877 10.8422 1.43877C8.47848 1.43877 7.09109 3.08308 7.09109 5.96063C7.09109 9.45479 9.71171 11.4588 14.0794 14.3363C17.9333 16.8542 23.7911 19.2693 23.7911 25.7951C23.7911 31.8071 18.961 35.9693 11.0477 35.9693C7.65632 35.9693 4.31631 34.7874 2.26093 33.9139C1.18185 33.4514 0.308308 32.0641 0.359693 30.8822L0.719386 23.38C0.77077 21.8385 1.07908 21.0677 1.49016 21.0677C1.84985 21.0677 2.31231 21.7357 2.82616 23.0203C4.77878 28.0047 8.01601 34.5305 11.7671 34.5305C13.2573 34.5305 16.7 34.1194 16.7 30.0087Z" fill="#15023A"/>
<path d="M117.936 8.54353C119.113 8.54353 120.234 8.74466 121.25 9.10721C122.07 9.3998 122.79 8.48435 122.308 7.76328L118.69 2.3425C118.332 1.80641 117.54 1.80641 117.182 2.3425L113.563 7.76328C113.082 8.48435 113.802 9.3998 114.622 9.10721C115.637 8.74398 116.758 8.54353 117.936 8.54353Z" fill="#15023A"/>
</svg>
